<svg width="35" height="35" viewBox="0 0 35 35" fill="none" xmlns="http://www.w3.org/2000/svg">
<path d="M17.5001 0C27.1651 0 35 7.83503 35 17.5C35 27.165 27.1651 35 17.5001 35C7.83502 35 0 27.165 0 17.5C0 7.83503 7.83502 0 17.5001 0ZM17.4934 14.4363C16.596 14.437 15.8569 15.1129 15.7564 15.9832L15.7447 16.1872L15.751 25.8136L15.7629 26.0176C15.8646 26.8877 16.6047 27.5628 17.502 27.5621C18.3992 27.5615 19.1383 26.8856 19.2389 26.0153L19.2505 25.8113L19.2442 16.1849L19.2323 15.9809C19.1306 15.1108 18.3907 14.4357 17.4934 14.4363ZM17.5008 7.8756C16.2913 7.8756 15.311 8.85601 15.311 10.0654C15.311 11.2748 16.2913 12.2553 17.5008 12.2553C18.7102 12.2553 19.6907 11.2748 19.6907 10.0654C19.6907 8.85601 18.7102 7.8756 17.5008 7.8756Z" fill="#89E159"/>
</svg>
