<svg width="23" height="18" viewBox="0 0 23 18" fill="none" xmlns="http://www.w3.org/2000/svg">
<path d="M9.45479 4.10456C7.61183 4.10456 6.11781 5.59859 6.11781 7.44155C6.11781 9.28457 7.61183 10.7785 9.45479 10.7785C11.2978 10.7785 12.7918 9.28457 12.7918 7.44155C12.7918 5.59859 11.2978 4.10456 9.45479 4.10456ZM7.7863 7.44155C7.7863 6.5201 8.53331 5.77306 9.45479 5.77306C10.3762 5.77306 11.1233 6.5201 11.1233 7.44155C11.1233 8.363 10.3762 9.11004 9.45479 9.11004C8.53331 9.11004 7.7863 8.363 7.7863 7.44155ZM0 3.27032C0 1.88809 1.12052 0.767578 2.50274 0.767578H16.4068C17.789 0.767578 18.9096 1.88809 18.9096 3.27032V11.6128C18.9096 12.995 17.789 14.1155 16.4068 14.1155H2.50274C1.12052 14.1155 0 12.995 0 11.6128V3.27032ZM2.50274 2.43607C2.042 2.43607 1.66849 2.80958 1.66849 3.27032V4.10456H2.50274C2.96348 4.10456 3.33699 3.73106 3.33699 3.27032V2.43607H2.50274ZM1.66849 9.11004H2.50274C3.88496 9.11004 5.00548 10.2306 5.00548 11.6128V12.447H13.9041V11.6128C13.9041 10.2306 15.0247 9.11004 16.4068 9.11004H17.2411V5.77306H16.4068C15.0247 5.77306 13.9041 4.65254 13.9041 3.27032V2.43607H5.00548V3.27032C5.00548 4.65254 3.88496 5.77306 2.50274 5.77306H1.66849V9.11004ZM17.2411 4.10456V3.27032C17.2411 2.80958 16.8676 2.43607 16.4068 2.43607H15.5726V3.27032C15.5726 3.73106 15.9461 4.10456 16.4068 4.10456H17.2411ZM17.2411 10.7785H16.4068C15.9461 10.7785 15.5726 11.1521 15.5726 11.6128V12.447H16.4068C16.8676 12.447 17.2411 12.0735 17.2411 11.6128V10.7785ZM1.66849 11.6128C1.66849 12.0735 2.042 12.447 2.50274 12.447H3.33699V11.6128C3.33699 11.1521 2.96348 10.7785 2.50274 10.7785H1.66849V11.6128ZM2.67111 15.784C3.24809 16.7814 4.32651 17.4525 5.56167 17.4525H16.963C19.8811 17.4525 22.2466 15.087 22.2466 12.1689V6.32922C22.2466 5.09409 21.5755 4.01567 20.5781 3.43869V12.1689C20.5781 14.1655 18.9595 15.784 16.963 15.784H2.67111Z" fill="#89E159"/>
</svg>
