<svg xmlns="http://www.w3.org/2000/svg" width="40" height="30" fill="none" viewBox="0 0 40 30"><path fill="#1F2431" d="M16.6133 6.20483C13.375 6.20483 10.7498 8.83002 10.7498 12.0683C10.7498 15.3068 13.375 17.9319 16.6133 17.9319C19.8517 17.9319 22.4768 15.3068 22.4768 12.0683C22.4768 8.83002 19.8517 6.20483 16.6133 6.20483ZM13.6815 12.0683C13.6815 10.4492 14.9941 9.13659 16.6133 9.13659C18.2324 9.13659 19.5451 10.4492 19.5451 12.0683C19.5451 13.6875 18.2324 15.0001 16.6133 15.0001C14.9941 15.0001 13.6815 13.6875 13.6815 12.0683ZM0 4.73895C0 2.3102 1.96889 0.341309 4.39764 0.341309H28.829C31.2576 0.341309 33.2266 2.3102 33.2266 4.73895V19.3977C33.2266 21.8264 31.2576 23.7954 28.829 23.7954H4.39764C1.96889 23.7954 0 21.8264 0 19.3977V4.73895ZM4.39764 3.27307C3.58806 3.27307 2.93176 3.92937 2.93176 4.73895V6.20483H4.39764C5.20722 6.20483 5.86352 5.54852 5.86352 4.73895V3.27307H4.39764ZM2.93176 15.0001H4.39764C6.82639 15.0001 8.79528 16.9691 8.79528 19.3977V20.8636H24.4313V19.3977C24.4313 16.9691 26.4003 15.0001 28.829 15.0001H30.2949V9.13659H28.829C26.4003 9.13659 24.4313 7.1677 24.4313 4.73895V3.27307H8.79528V4.73895C8.79528 7.1677 6.82639 9.13659 4.39764 9.13659H2.93176V15.0001ZM30.2949 6.20483V4.73895C30.2949 3.92937 29.6385 3.27307 28.829 3.27307H27.3631V4.73895C27.3631 5.54852 28.0194 6.20483 28.829 6.20483H30.2949ZM30.2949 17.9319H28.829C28.0194 17.9319 27.3631 18.5882 27.3631 19.3977V20.8636H28.829C29.6385 20.8636 30.2949 20.2073 30.2949 19.3977V17.9319ZM2.93176 19.3977C2.93176 20.2073 3.58806 20.8636 4.39764 20.8636H5.86352V19.3977C5.86352 18.5882 5.20722 17.9319 4.39764 17.9319H2.93176V19.3977ZM4.69349 26.7271C5.70732 28.4798 7.60225 29.6589 9.77257 29.6589H29.8062C34.9337 29.6589 39.0901 25.5025 39.0901 20.375V10.1138C39.0901 7.94356 37.911 6.04862 36.1584 5.0348V20.375C36.1584 23.8831 33.3144 26.7271 29.8062 26.7271H4.69349Z"/></svg>