<svg xmlns="http://www.w3.org/2000/svg" width="31" height="32" fill="none" viewBox="0 0 31 32"><path fill="#1F2431" d="M28.2808 12.3457C29.4528 12.0107 30.6913 12.6894 30.8567 13.897C31.2139 16.5057 30.9022 19.1754 29.9336 21.6499C28.6955 24.8128 26.4527 27.4815 23.5501 29.2456C20.6474 31.0097 17.2457 31.7715 13.8679 31.4138C10.4902 31.0562 7.32338 29.5989 4.85455 27.2661C2.38571 24.9332 0.751519 21.854 0.203253 18.5019C-0.345012 15.1498 0.223007 11.7104 1.81997 8.71256C3.41693 5.71473 5.95441 3.32447 9.04223 1.90932C11.4579 0.802233 14.1057 0.33988 16.7304 0.548892C17.9455 0.645648 18.6932 1.84379 18.425 3.03282C18.1568 4.22185 16.971 4.94464 15.7524 4.9169C14.083 4.8789 12.4165 5.21839 10.8812 5.92202C8.67277 6.93417 6.8579 8.64374 5.71572 10.7879C4.57353 12.932 4.16727 15.3919 4.55941 17.7894C4.95154 20.1869 6.12035 22.3893 7.88612 24.0578C9.65189 25.7263 11.9168 26.7685 14.3327 27.0243C16.7486 27.2801 19.1816 26.7353 21.2576 25.4736C23.3336 24.2119 24.9377 22.3031 25.8233 20.0409C26.4389 18.4683 26.6835 16.7853 26.551 15.1207C26.4544 13.9056 27.1089 12.6808 28.2808 12.3457Z"/></svg>