<svg width="73" height="73" viewBox="0 0 73 73" fill="none" xmlns="http://www.w3.org/2000/svg">
<path fill-rule="evenodd" clip-rule="evenodd" d="M26.6845 50.4198L44.7027 32.4016V48.1453C44.7027 49.4035 45.7351 50.4359 46.9933 50.4359C48.2515 50.4359 49.2678 49.4197 49.2678 48.1614L49.2678 26.901C49.2678 25.6427 48.2515 24.6265 46.9933 24.6265L25.7328 24.5942C25.1294 24.5936 24.5505 24.833 24.1238 25.2597C23.6971 25.6864 23.4577 26.2653 23.4584 26.8687C23.4584 28.1269 24.4746 29.1431 25.7328 29.1431L41.4766 29.1754L23.4584 47.1936C22.5712 48.0808 22.5712 49.5326 23.4584 50.4198C24.3456 51.307 25.7973 51.307 26.6845 50.4198Z" fill="#89E159"/>
</svg>
