<svg width="1134" height="523" viewBox="0 0 1134 523" fill="none" xmlns="http://www.w3.org/2000/svg">
<path d="M168.932 212.457C168.957 189.429 181.567 168.156 202.03 156.622L301.477 100.57C307.375 97.2454 314.755 101.395 314.748 108.032L314.628 219.935C314.604 242.962 301.992 264.234 281.529 275.769L182.084 331.821C176.185 335.146 168.805 330.996 168.813 324.358L168.932 212.457Z" fill="white"/>
<path d="M124.629 8.61946C145.117 -2.87316 170.338 -2.87314 190.827 8.61946L290.392 64.4694C296.297 67.7821 296.297 76.0818 290.392 79.3944L190.827 135.245C170.338 146.736 145.117 146.736 124.629 135.245L25.0639 79.3944C19.1584 76.0818 19.1584 67.7821 25.0639 64.4694L124.629 8.61946Z" fill="#89E159"/>
<path d="M0.88371 219.935C0.908409 242.962 13.519 264.234 33.9825 275.769L133.428 331.821C139.327 335.146 146.707 330.996 146.699 324.358L146.579 212.457C146.555 189.429 133.945 168.156 113.481 156.622L14.0352 100.57C8.13673 97.2454 0.756557 101.395 0.763677 108.032L0.88371 219.935Z" fill="white"/>
<path d="M168.932 402.464C168.957 379.437 181.567 358.165 202.03 346.63L301.477 290.579C307.375 287.254 314.755 291.403 314.748 298.041L314.628 409.942C314.604 432.97 301.992 454.241 281.529 465.776L182.084 521.829C176.185 525.154 168.805 521.004 168.813 514.367L168.932 402.464Z" fill="white"/>
<path d="M0.88371 409.942C0.908409 432.97 13.519 454.241 33.9825 465.776L133.428 521.829C139.327 525.154 146.707 521.004 146.699 514.367L146.579 402.464C146.555 379.437 133.945 358.165 113.481 346.63L14.0352 290.579C8.13673 287.254 0.756557 291.403 0.763677 298.041L0.88371 409.942Z" fill="white"/>
<path d="M476.559 142.686C485.424 142.686 493.099 144.173 499.581 147.148C506.159 150.124 511.212 154.347 514.739 159.817C518.266 165.288 520.03 171.766 520.03 179.252C520.03 186.642 518.266 193.121 514.739 198.687C511.212 204.158 506.159 208.381 499.581 211.356C493.099 214.235 485.424 215.675 476.559 215.675H456.396V243.46H433.23V142.686H476.559ZM475.272 196.672C482.231 196.672 487.522 195.184 491.144 192.209C494.767 189.138 496.578 184.819 496.578 179.252C496.578 173.59 494.767 169.271 491.144 166.296C487.522 163.224 482.231 161.689 475.272 161.689H456.396V196.672H475.272Z" fill="white"/>
<path d="M584.04 245.188C573.839 245.188 564.592 242.98 556.298 238.565C548.1 234.054 541.617 227.864 536.851 219.994C532.18 212.028 529.844 203.054 529.844 193.073C529.844 183.091 532.18 174.166 536.851 166.296C541.617 158.33 548.1 152.139 556.298 147.724C564.592 143.213 573.887 140.958 584.183 140.958C592.858 140.958 600.675 142.494 607.634 145.565C614.689 148.636 620.599 153.051 625.366 158.81L610.494 172.63C603.726 164.76 595.337 160.825 585.327 160.825C579.13 160.825 573.601 162.217 568.739 165C563.877 167.687 560.064 171.478 557.299 176.373C554.63 181.268 553.296 186.834 553.296 193.073C553.296 199.311 554.63 204.878 557.299 209.773C560.064 214.667 563.877 218.506 568.739 221.29C573.601 223.977 579.13 225.321 585.327 225.321C595.337 225.321 603.726 221.338 610.494 213.372L625.366 227.192C620.599 233.047 614.689 237.51 607.634 240.581C600.58 243.652 592.715 245.188 584.04 245.188Z" fill="white"/>
<path d="M656.527 142.686L677.262 173.206L697.996 142.686H725.166L691.847 190.913L727.883 243.46H700.57L677.262 210.061L654.239 243.46H627.499L663.248 191.921L629.787 142.686H656.527Z" fill="white"/>
<path d="M738.496 142.686H819.289V161.257H761.518V181.988H789.26C801.367 181.988 810.566 184.531 816.858 189.618C823.245 194.704 826.439 202.047 826.439 211.644C826.439 221.722 822.912 229.544 815.857 235.11C808.803 240.677 798.841 243.46 785.971 243.46H738.496V142.686ZM784.684 226.184C790.594 226.184 795.123 225.033 798.268 222.729C801.414 220.33 802.987 216.875 802.987 212.364C802.987 203.534 796.886 199.119 784.684 199.119H761.518V226.184H784.684Z" fill="white"/>
<path d="M502.584 376.009C508.685 377.833 513.356 380.808 516.598 384.935C519.839 389.062 521.46 394.149 521.46 400.195C521.46 409.121 518.075 416.079 511.307 421.07C504.634 426.061 495.053 428.556 482.564 428.556H433.23V327.782H479.848C491.478 327.782 500.534 330.037 507.017 334.548C513.499 339.059 516.741 345.489 516.741 353.839C516.741 358.83 515.501 363.245 513.023 367.084C510.544 370.827 507.065 373.802 502.584 376.009ZM456.253 369.531H477.846C482.898 369.531 486.711 368.523 489.285 366.508C491.859 364.396 493.146 361.325 493.146 357.294C493.146 353.359 491.812 350.336 489.142 348.224C486.568 346.113 482.803 345.057 477.846 345.057H456.253V369.531ZM481.706 411.281C492.574 411.281 498.008 406.962 498.008 398.324C498.008 389.974 492.574 385.799 481.706 385.799H456.253V411.281H481.706Z" fill="#89E159"/>
<path d="M685.237 409.553V449.863H663.931V428.556H580.277V327.782H603.3V409.553H647.915V327.782H670.937V409.553H685.237Z" fill="#89E159"/>
<path d="M700.512 327.782H723.535V393.429L771.296 327.782H793.031V428.556H770.152V363.053L722.391 428.556H700.512V327.782Z" fill="#89E159"/>
<path d="M936.499 377.881C936.499 391.222 931.97 401.731 922.914 409.409C913.953 416.991 901.035 421.214 884.162 422.078V433.019H862.855V421.934C845.886 420.974 832.873 416.703 823.817 409.121C814.856 401.443 810.375 391.03 810.375 377.881C810.375 364.636 814.856 354.271 823.817 346.785C832.873 339.203 845.886 334.884 862.855 333.828V323.463H884.162V333.684C901.035 334.644 913.953 338.963 922.914 346.641C931.97 354.319 936.499 364.732 936.499 377.881ZM884.162 403.794C894.267 402.835 901.798 400.243 906.755 396.02C911.712 391.701 914.191 385.607 914.191 377.737C914.191 362.381 904.181 353.839 884.162 352.111V403.794ZM832.826 377.881C832.826 393.045 842.836 401.683 862.855 403.794V352.111C852.655 353.071 845.076 355.663 840.119 359.886C835.257 364.013 832.826 370.011 832.826 377.881Z" fill="#89E159"/>
<path d="M997.157 327.782C1006.02 327.782 1013.7 329.269 1020.18 332.245C1026.76 335.22 1031.81 339.443 1035.34 344.913C1038.86 350.384 1040.63 356.862 1040.63 364.348C1040.63 371.739 1038.86 378.217 1035.34 383.783C1031.81 389.254 1026.76 393.477 1020.18 396.452C1013.7 399.332 1006.02 400.771 997.157 400.771H976.995V428.556H953.829V327.782H997.157ZM995.87 381.768C1002.83 381.768 1008.12 380.28 1011.74 377.305C1015.37 374.234 1017.18 369.915 1017.18 364.348C1017.18 358.686 1015.37 354.367 1011.74 351.392C1008.12 348.32 1002.83 346.785 995.87 346.785H976.995V381.768H995.87Z" fill="#89E159"/>
<path d="M1133.41 409.841V428.556H1055.91V327.782H1131.56V346.497H1078.93V368.379H1125.41V386.519H1078.93V409.841H1133.41Z" fill="#89E159"/>
</svg>
