<svg width="23" height="18" viewBox="0 0 23 18" fill="none" xmlns="http://www.w3.org/2000/svg">
<path d="M9.45479 4.10408C7.61183 4.10408 6.11781 5.5981 6.11781 7.44106C6.11781 9.28408 7.61183 10.778 9.45479 10.778C11.2978 10.778 12.7918 9.28408 12.7918 7.44106C12.7918 5.5981 11.2978 4.10408 9.45479 4.10408ZM7.7863 7.44106C7.7863 6.51961 8.53331 5.77257 9.45479 5.77257C10.3762 5.77257 11.1233 6.51961 11.1233 7.44106C11.1233 8.36252 10.3762 9.10956 9.45479 9.10956C8.53331 9.10956 7.7863 8.36252 7.7863 7.44106ZM0 3.26983C0 1.88761 1.12052 0.76709 2.50274 0.76709H16.4068C17.789 0.76709 18.9096 1.88761 18.9096 3.26983V11.6123C18.9096 12.9945 17.789 14.115 16.4068 14.115H2.50274C1.12052 14.115 0 12.9945 0 11.6123V3.26983ZM2.50274 2.43558C2.042 2.43558 1.66849 2.80909 1.66849 3.26983V4.10408H2.50274C2.96348 4.10408 3.33699 3.73057 3.33699 3.26983V2.43558H2.50274ZM1.66849 9.10956H2.50274C3.88496 9.10956 5.00548 10.2301 5.00548 11.6123V12.4465H13.9041V11.6123C13.9041 10.2301 15.0247 9.10956 16.4068 9.10956H17.2411V5.77257H16.4068C15.0247 5.77257 13.9041 4.65205 13.9041 3.26983V2.43558H5.00548V3.26983C5.00548 4.65205 3.88496 5.77257 2.50274 5.77257H1.66849V9.10956ZM17.2411 4.10408V3.26983C17.2411 2.80909 16.8676 2.43558 16.4068 2.43558H15.5726V3.26983C15.5726 3.73057 15.9461 4.10408 16.4068 4.10408H17.2411ZM17.2411 10.778H16.4068C15.9461 10.778 15.5726 11.1516 15.5726 11.6123V12.4465H16.4068C16.8676 12.4465 17.2411 12.073 17.2411 11.6123V10.778ZM1.66849 11.6123C1.66849 12.073 2.042 12.4465 2.50274 12.4465H3.33699V11.6123C3.33699 11.1516 2.96348 10.778 2.50274 10.778H1.66849V11.6123ZM2.67111 15.7835C3.24809 16.781 4.32651 17.452 5.56167 17.452H16.963C19.8811 17.452 22.2466 15.0865 22.2466 12.1685V6.32873C22.2466 5.0936 21.5755 4.01518 20.5781 3.4382V12.1685C20.5781 14.165 18.9595 15.7835 16.963 15.7835H2.67111Z" fill="#89E159"/>
</svg>
